<?xml version="1.0" encoding="UTF-8"?>
<svg version="1.1" xmlns="http://www.w3.org/2000/svg" width="512" height="512">
<path d="M0 0 C5.7811045 3.49352767 10.64507762 8.99872264 12.5625 15.5 C12.37173851 17.55614001 12.17612225 19.61243898 11.921875 21.66169739 C11.43931279 26.43589017 10.97370985 31.26252825 13.86621094 35.33599854 C15.67275867 37.09807479 17.53561624 38.60983359 19.5625 40.11328125 C20.2730957 40.64368011 20.98369141 41.17407898 21.71582031 41.72055054 C23.22324781 42.83389189 24.73241231 43.94488464 26.24316406 45.05371094 C36.04156295 52.48399152 44.12992779 60.36139438 46.078125 72.92333984 C46.99197182 81.26152161 46.8901089 89.63090232 46.5625 98 C46.53510742 98.70323521 46.50771484 99.40647041 46.47949219 100.13101578 C46.11054065 108.94630637 45.43815665 117.71985809 44.5625 126.5 C49.8425 126.5 55.1225 126.5 60.5625 126.5 C60.5625 118.58 60.5625 110.66 60.5625 102.5 C65.8425 102.5 71.1225 102.5 76.5625 102.5 C76.5625 110.42 76.5625 118.34 76.5625 126.5 C81.8425 126.5 87.1225 126.5 92.5625 126.5 C92.5625 107.69 92.5625 88.88 92.5625 69.5 C90.9125 68.84 89.2625 68.18 87.5625 67.5 C82.44111193 63.94504381 77.72061695 59.86402132 76.5625 53.5 C75.81512075 45.57210367 75.41849434 37.98086589 80.5625 31.5 C85.59726311 25.76918669 90.98724728 22.6192053 98.5625 21.5 C104.82936318 21.26096542 110.44440897 22.85908158 115.5625 26.5 C120.62509854 31.26362618 124.17097718 35.68948142 124.8984375 42.76953125 C124.99269688 51.31885727 124.66751554 57.19309845 118.65625 63.5 C115.22017077 66.67965541 113.19525636 68.34181091 108.5625 69.5 C108.5625 88.31 108.5625 107.12 108.5625 126.5 C113.8425 126.5 119.1225 126.5 124.5625 126.5 C124.5625 118.58 124.5625 110.66 124.5625 102.5 C129.8425 102.5 135.1225 102.5 140.5625 102.5 C140.5625 110.42 140.5625 118.34 140.5625 126.5 C145.8425 126.5 151.1225 126.5 156.5625 126.5 C156.14484375 123.78946411 156.14484375 123.78946411 155.71875 121.02416992 C153.5578889 100.70973808 153.5578889 100.70973808 159.74047852 92.46699715 C165.39710607 85.74922145 172.1466995 79.9912136 178.81347656 74.3069458 C183.98808141 69.88552621 189.06778315 65.36174692 194.0625 60.73828125 C194.58734985 60.25591129 195.11219971 59.77354134 195.6529541 59.27655411 C202.61166075 52.91001381 202.61166075 52.91001381 205.921875 44.32177734 C206.02326277 41.21467102 205.64720378 38.43269879 205.015625 35.39916992 C204.43304496 30.38603098 205.8450093 27.62508064 208.5625 23.5 C210.52734375 21.2578125 210.52734375 21.2578125 212.5 19.625 C213.14839844 19.07070313 213.79679687 18.51640625 214.46484375 17.9453125 C220.96607557 13.46587903 227.93390917 13.82536272 235.5625 14.5 C242.22209333 16.18085583 246.74797447 20.96378322 250.5625 26.5 C253.79951739 32.93087454 253.68639015 41.04711876 251.9453125 47.9453125 C249.27582358 53.96938041 244.14972672 58.54876483 238.42333984 61.66357422 C235.24850243 62.59180369 233.10715581 62.16338382 229.89646912 61.61639404 C222.69311053 60.67469514 217.80825069 61.87111684 211.98779297 66.29492188 C206.86337451 70.65358381 202.11916272 75.35438142 197.46069336 80.20019531 C195.00814709 82.74961548 192.48098516 85.20593538 189.92287254 87.64879608 C177.27214759 99.42063735 177.27214759 99.42063735 171.78334045 115.24249268 C171.74168638 119.07846785 172.01024951 122.70226799 172.5625 126.5 C173.17774536 126.4927037 173.79299072 126.48540741 174.42687988 126.47789001 C175.23540405 126.47221512 176.04392822 126.46654022 176.87695312 126.46069336 C177.67782349 126.45339706 178.47869385 126.44610077 179.30383301 126.43858337 C188.97206251 126.70147739 197.12621597 132.85288267 203.53515625 139.56640625 C210.45534279 147.77953635 212.88957753 155.92885438 212.5625 166.5 C224.36610302 167.68189523 236.81264414 168.82366125 246.875 161.61328125 C253.41411102 155.97525564 260.48764906 149.3953925 261.640625 140.44921875 C261.73202364 137.37140077 261.39788018 134.54213243 260.875 131.515625 C260.14561482 126.71885169 261.91427779 123.42541817 264.5625 119.5 C266.52734375 117.2578125 266.52734375 117.2578125 268.5 115.625 C269.14839844 115.07070312 269.79679687 114.51640625 270.46484375 113.9453125 C276.96607557 109.46587903 283.93390917 109.82536272 291.5625 110.5 C298.22209333 112.18085583 302.74797447 116.96378322 306.5625 122.5 C309.79951739 128.93087454 309.68639015 137.04711876 307.9453125 143.9453125 C305.23365875 150.06453113 300.04205951 154.5322491 294.296875 157.78125 C291.18696945 158.59871089 289.05462414 158.06007122 285.94799805 157.45703125 C281.46332169 156.77957264 277.80567049 156.73824309 273.5625 158.5 C270.09550511 161.64147387 267.17077008 165.1952839 264.18374634 168.78265381 C252.53086162 182.74051836 252.53086162 182.74051836 242.36408997 183.93041992 C232.38285913 184.56640856 222.47307478 183.65338586 212.5625 182.5 C212.5625 187.78 212.5625 193.06 212.5625 198.5 C220.4825 198.5 228.4025 198.5 236.5625 198.5 C236.5625 203.78 236.5625 209.06 236.5625 214.5 C228.6425 214.5 220.7225 214.5 212.5625 214.5 C212.5625 219.78 212.5625 225.06 212.5625 230.5 C242.03362339 232.56697924 261.85323056 226.17580327 287.26660156 211.32006836 C290.5625 209.5 290.5625 209.5 292.5625 209.5 C292.51609375 208.8709375 292.4696875 208.241875 292.421875 207.59375 C292.15541919 201.27494076 292.73556749 196.64876992 296.5625 191.5 C301.33990313 186.44333322 305.74261899 182.89248479 312.83203125 182.1640625 C321.34826573 182.07016796 327.23845494 182.3822712 333.52734375 188.37109375 C339.9091668 195.27494731 341.04292252 200.70167929 340.8671875 210.0546875 C340.17189797 217.91680755 336.51495981 222.04958704 330.66015625 227.0546875 C324.18565711 231.51570181 317.16530786 231.22938902 309.5625 230.5 C306.50485025 229.47924381 304.32784456 228.22181831 301.5625 226.5 C300.5725 226.17 299.5825 225.84 298.5625 225.5 C295.83219838 226.91612838 293.25157311 228.40036757 290.62890625 229.99609375 C264.02505162 245.39094897 243.07543569 249.51506857 212.5625 246.5 C212.5625 251.78 212.5625 257.06 212.5625 262.5 C225.7625 262.5 238.9625 262.5 252.5625 262.5 C252.5625 267.78 252.5625 273.06 252.5625 278.5 C239.3625 278.5 226.1625 278.5 212.5625 278.5 C212.5625 283.78 212.5625 289.06 212.5625 294.5 C215.9356543 294.37431641 215.9356543 294.37431641 219.37695312 294.24609375 C226.86744007 293.9791223 234.35815694 293.80353237 241.85216522 293.67100525 C246.38987432 293.58802521 250.92265067 293.47585045 255.45751953 293.29296875 C287.41789162 292.03639222 287.41789162 292.03639222 295.26757812 298.10644531 C298.11596893 300.83252587 300.31537718 303.70941429 302.5234375 306.96191406 C304.23875424 309.38534341 305.01786275 310.33964394 307.89318848 311.18621826 C311.83154311 311.53472589 315.5034749 311.24088542 319.40625 310.671875 C324.24867663 310.13969652 327.59771491 311.83178256 331.5625 314.5 C333.8046875 316.46484375 333.8046875 316.46484375 335.4375 318.4375 C335.99179687 319.08589844 336.54609375 319.73429687 337.1171875 320.40234375 C341.59662097 326.90357557 341.23713728 333.87140917 340.5625 341.5 C338.88164417 348.15959333 334.09871678 352.68547447 328.5625 356.5 C322.13162546 359.73701739 314.01538124 359.62389015 307.1171875 357.8828125 C301.03484216 355.18749868 296.52169801 350.02159643 293.328125 344.28125 C292.59815384 341.62951802 292.55320815 340.17499055 292.7890625 337.49609375 C292.84964844 336.75423828 292.91023438 336.01238281 292.97265625 335.24804688 C293.11375166 333.73062987 293.29495183 332.21630862 293.51953125 330.70898438 C293.83881806 325.68237445 292.33674157 322.66143422 289.01657486 318.86841202 C283.44620297 313.04204098 279.34042204 310.23147766 270.92308235 309.98672962 C268.7848516 309.98800617 266.65288319 310.04742127 264.515625 310.109375 C263.00818985 310.10931852 261.50074654 310.10395254 259.99334717 310.09356689 C256.06596529 310.08050428 252.14288668 310.13850386 248.21630859 310.21246338 C244.1937769 310.27527714 240.17137334 310.26931941 236.1484375 310.26953125 C228.28500774 310.27989005 220.42478255 310.36548556 212.5625 310.5 C212.5697963 311.11524536 212.57709259 311.73049072 212.58460999 312.36437988 C212.59028488 313.17290405 212.59595978 313.98142822 212.60180664 314.81445312 C212.60910294 315.61532349 212.61639923 316.41619385 212.62391663 317.24133301 C212.36102261 326.90956251 206.20961733 335.06371597 199.49609375 341.47265625 C191.03741718 348.59973436 183.58200648 350.5 172.5625 350.5 C172.5625 366.34 172.5625 382.18 172.5625 398.5 C186.0925 398.5 199.6225 398.5 213.5625 398.5 C214.2225 396.52 214.8825 394.54 215.5625 392.5 C219.04383562 387.76942521 223.69679656 383.66070457 229.5625 382.5 C237.48633252 381.74354821 245.08581123 381.35930981 251.5625 386.5 C257.29331331 391.53476311 260.4432947 396.92474728 261.5625 404.5 C261.80153458 410.76686318 260.20341842 416.38190897 256.5625 421.5 C251.79887382 426.56259854 247.37301858 430.10847718 240.29296875 430.8359375 C231.74364273 430.93019688 225.86940155 430.60501554 219.5625 424.59375 C216.38284459 421.15767077 214.72068909 419.13275636 213.5625 414.5 C194.7525 414.5 175.9425 414.5 156.5625 414.5 C156.5625 393.38 156.5625 372.26 156.5625 350.5 C151.2825 350.5 146.0025 350.5 140.5625 350.5 C140.5625 358.42 140.5625 366.34 140.5625 374.5 C135.2825 374.5 130.0025 374.5 124.5625 374.5 C124.5625 366.58 124.5625 358.66 124.5625 350.5 C119.2825 350.5 114.0025 350.5 108.5625 350.5 C108.21637319 357.96814957 107.96320206 365.42903812 107.86559582 372.90437603 C107.81668226 376.37827867 107.72996968 379.84193877 107.55102539 383.31176758 C106.26497674 398.47597363 106.26497674 398.47597363 111.55987549 411.98278809 C116.47966053 416.14614173 121.94818477 418.77352461 127.85476685 421.25445557 C132.26721986 423.28416307 136.12173892 426.06088727 140.0625 428.875 C144.69593767 432.36732205 144.69593767 432.36732205 150.21875 433.4140625 C151.80044178 432.79720271 153.36975086 432.14774508 154.92578125 431.46875 C161.21884065 429.15663336 169.23960771 429.35911139 175.5546875 431.52734375 C182.48142984 435.32757777 187.06680624 441.01291872 189.5625 448.5 C190.12549333 455.80808649 189.90842763 461.92352156 186.5625 468.5 C184.1875 471.25 184.1875 471.25 181.5625 473.5 C180.758125 474.221875 179.95375 474.94375 179.125 475.6875 C172.87718216 480.10668823 165.99665089 480.40705992 158.5625 479.5 C151.96860975 477.37499802 147.41351281 474.21817054 143.5625 468.5 C142.69625 467.2315625 142.69625 467.2315625 141.8125 465.9375 C140.5625 462.5 140.5625 462.5 140.63916016 459.60400391 C140.8262751 452.75880035 140.8262751 452.75880035 137.35351562 447.1340332 C134.22178346 445.000028 131.04341455 443.19799893 127.6875 441.4375 C126.50377215 440.77300232 125.32278909 440.10359264 124.14453125 439.42944336 C121.76960587 438.07525832 119.38445144 436.7427767 116.98925781 435.42480469 C112.05905864 432.65551926 107.31225598 429.6276896 102.5625 426.5625 C101.04275655 425.59334091 99.52202794 424.62572367 98 423.66015625 C97.37996094 423.26449463 96.75992188 422.86883301 96.12109375 422.46118164 C94.51826246 421.44086367 94.51826246 421.44086367 92.5625 420.5 C92.5625 397.4 92.5625 374.3 92.5625 350.5 C87.2825 350.5 82.0025 350.5 76.5625 350.5 C76.5625 366.34 76.5625 382.18 76.5625 398.5 C71.2825 398.5 66.0025 398.5 60.5625 398.5 C60.5625 382.66 60.5625 366.82 60.5625 350.5 C55.2825 350.5 50.0025 350.5 44.5625 350.5 C44.73007813 352.18029297 44.89765625 353.86058594 45.0703125 355.59179688 C45.78077227 363.38654648 46.25790315 371.18024588 46.5625 379 C46.58989258 379.69977085 46.61728516 380.3995417 46.64550781 381.12051773 C47.66481411 410.59540505 47.66481411 410.59540505 37.4375 422.04296875 C33.28172783 426.37955903 28.78135783 430.08336486 23.9453125 433.6328125 C22.48156319 434.71365028 21.02052858 435.79817613 19.5625 436.88671875 C18.8710791 437.40068207 18.1796582 437.91464539 17.46728516 438.44418335 C13.93397821 441.35968938 12.17002763 443.39184416 11.703125 448.03759766 C11.65734014 451.16934953 11.97318473 454.15070844 12.390625 457.24926758 C12.93061585 462.10496898 11.19084169 465.49892049 8.5625 469.5 C6.59765625 471.7421875 6.59765625 471.7421875 4.625 473.375 C3.97660156 473.92929687 3.32820312 474.48359375 2.66015625 475.0546875 C-3.84107557 479.53412097 -10.80890917 479.17463728 -18.4375 478.5 C-25.09709333 476.81914417 -29.62297447 472.03621678 -33.4375 466.5 C-36.67451739 460.06912546 -36.56139015 451.95288124 -34.8203125 445.0546875 C-32.16562474 439.06402044 -27.05706363 434.43093701 -21.32958984 431.37548828 C-18.16540179 430.41763091 -15.62891215 430.58687982 -12.36326599 430.87432861 C-3.62433558 431.53082097 2.33734452 430.22447752 9.24453735 424.7489624 C11.10144815 423.13928263 12.86740996 421.46734263 14.625 419.75 C15.24137329 419.17084839 15.85774658 418.59169678 16.49279785 417.99499512 C27.29334626 407.42365859 29.46193981 396.73170021 29.84936523 381.93261719 C29.87856975 371.43077893 29.44411763 360.96388921 28.5625 350.5 C27.94725464 350.5072963 27.33200928 350.51459259 26.69812012 350.52210999 C25.88959595 350.52778488 25.08107178 350.53345978 24.24804688 350.53930664 C23.44717651 350.54660294 22.64630615 350.55389923 21.82116699 350.56141663 C12.15293749 350.29852261 3.99878403 344.14711733 -2.41015625 337.43359375 C-9.33034279 329.22046365 -11.76457753 321.07114562 -11.4375 310.5 C-22.55441387 308.54454111 -35.90448679 306.43492278 -46.4375 311.5 C-52.73218273 316.37235361 -57.02703526 323.12786059 -61.1875 329.8125 C-61.72768768 330.67861908 -62.26787537 331.54473816 -62.82443237 332.43710327 C-65.26973523 336.44825094 -67.61911823 340.51006006 -69.81152344 344.6652832 C-70.32268707 345.63338676 -70.32268707 345.63338676 -70.84417725 346.62104797 C-71.59175773 348.98850792 -71.27172923 350.18559093 -70.4375 352.5 C-69.921875 353.44875 -69.40625 354.3975 -68.875 355.375 C-66.0739499 361.85504128 -66.34913237 369.73606194 -68.28125 376.41796875 C-71.49505294 383.59473815 -76.32856957 387.53485936 -83.3125 390.875 C-91.63163556 392.53882711 -99.05134562 391.91186402 -106.4375 387.5 C-112.3015404 382.51777019 -115.76210698 376.70896867 -116.75 369.08984375 C-117.12557783 361.49612954 -114.59865412 356.15733774 -110.8125 349.75 C-106.93294719 346.07463418 -101.72710973 342.48340412 -96.20838928 342.51124573 C-92.28450833 342.52764047 -89.48767434 342.41274982 -86.45031738 339.77285767 C-84.5379178 337.30971111 -82.8682658 334.78564758 -81.22265625 332.13671875 C-80.28902504 330.72142632 -80.28902504 330.72142632 -79.33653259 329.27754211 C-77.35989233 326.26652495 -75.42982848 323.22868251 -73.5 320.1875 C-72.17684253 318.15233389 -70.85070013 316.1191051 -69.52148438 314.08789062 C-66.59677408 309.61185864 -63.70173418 305.11815384 -60.83192444 300.60673523 C-60.14168434 299.56390129 -60.14168434 299.56390129 -59.4375 298.5 C-58.97606598 297.75891495 -58.51463196 297.0178299 -58.03921509 296.25428772 C-56.4375 294.5 -56.4375 294.5 -54.36836243 294.01898193 C-53.5756041 294.02786438 -52.78284576 294.03674683 -51.96606445 294.04589844 C-51.06535721 294.04620056 -50.16464996 294.04650269 -49.23664856 294.04681396 C-48.26781235 294.06745911 -47.29897614 294.08810425 -46.30078125 294.109375 C-45.30620407 294.11503479 -44.31162689 294.12069458 -43.28691101 294.12652588 C-40.10745289 294.1489328 -36.929118 294.19913795 -33.75 294.25 C-31.59571939 294.27005938 -29.44142113 294.28831113 -27.28710938 294.3046875 C-22.00347286 294.34881189 -16.72067692 294.4178699 -11.4375 294.5 C-11.4375 289.22 -11.4375 283.94 -11.4375 278.5 C-35.1975 278.5 -58.9575 278.5 -83.4375 278.5 C-83.4375 273.22 -83.4375 267.94 -83.4375 262.5 C-59.6775 262.5 -35.9175 262.5 -11.4375 262.5 C-11.4375 257.22 -11.4375 251.94 -11.4375 246.5 C-19.3575 246.5 -27.2775 246.5 -35.4375 246.5 C-35.4375 241.22 -35.4375 235.94 -35.4375 230.5 C-27.5175 230.5 -19.5975 230.5 -11.4375 230.5 C-11.4375 225.22 -11.4375 219.94 -11.4375 214.5 C-17.66414149 214.42001425 -23.88718855 214.39975903 -30.11425781 214.43286133 C-32.2285535 214.43592786 -34.34293749 214.42317948 -36.45703125 214.39379883 C-50.50624009 213.714317 -50.50624009 213.714317 -62.55078125 219.79296875 C-63.88470646 221.32950589 -65.18707066 222.89478059 -66.4375 224.5 C-68.19308209 225.97665783 -69.96037711 227.43978688 -71.75 228.875 C-74.85430006 231.38061362 -77.93012947 233.9089492 -80.953125 236.51171875 C-81.54311279 237.01848145 -82.13310059 237.52524414 -82.7409668 238.04736328 C-83.89692542 239.04304395 -85.04954769 240.04261368 -86.19848633 241.04638672 C-90.2165731 244.5 -90.2165731 244.5 -92.4375 244.5 C-92.1075 245.49 -91.7775 246.48 -91.4375 247.5 C-90.82509928 255.40097319 -90.26402286 263.05837248 -95.4375 269.5 C-100.24198639 274.54521222 -104.59927055 278.10562995 -111.70703125 278.8359375 C-120.22326573 278.92983204 -126.11345494 278.6177288 -132.40234375 272.62890625 C-138.7841668 265.72505269 -139.91792252 260.29832071 -139.7421875 250.9453125 C-139.04689797 243.08319245 -135.38995981 238.95041296 -129.53515625 233.9453125 C-124.87733354 230.73601194 -121.05078922 230.24596317 -115.4375 230.3125 C-114.24125 230.31894531 -113.045 230.32539063 -111.8125 230.33203125 C-108.4375 230.5 -108.4375 230.5 -105.9453125 231.37890625 C-102.2966945 231.55508562 -100.86262108 229.79721567 -98.22412109 227.42333984 C-97.59328613 226.8298877 -96.96245117 226.23643555 -96.3125 225.625 C-94.96984448 224.41024751 -93.6260883 223.19671051 -92.28125 221.984375 C-91.62511719 221.38560547 -90.96898437 220.78683594 -90.29296875 220.16992188 C-87.07143584 217.27054225 -83.70419033 214.56609223 -80.27954102 211.91186523 C-77.37161984 209.57259701 -77.37161984 209.57259701 -75.02905273 206.69067383 C-68.92024592 200.13123081 -64.09045178 197.87026883 -55.06427002 197.4552002 C-49.07501024 197.40471449 -43.10909603 197.58153489 -37.125 197.8125 C-34.6309677 197.86775729 -32.13681735 197.91793318 -29.64257812 197.96289062 C-23.57127259 198.08329631 -17.50570299 198.27263716 -11.4375 198.5 C-11.4375 193.22 -11.4375 187.94 -11.4375 182.5 C-15.02625 182.91765625 -15.02625 182.91765625 -18.6875 183.34375 C-44.47486948 185.65813735 -44.47486948 185.65813735 -52.25537109 180.14453125 C-56.87377539 176.28065567 -60.63687195 171.68963687 -64.47851562 167.08105469 C-69.84488679 160.22797526 -69.84488679 160.22797526 -77.61328125 157.046875 C-80.71360921 156.99799802 -83.53546836 157.42117778 -86.5625 158.046875 C-91.60377555 158.636379 -94.31674879 157.28675312 -98.4375 154.5 C-100.6796875 152.53515625 -100.6796875 152.53515625 -102.3125 150.5625 C-102.86679688 149.91410156 -103.42109375 149.26570312 -103.9921875 148.59765625 C-108.47162097 142.09642443 -108.11213728 135.12859083 -107.4375 127.5 C-105.75664417 120.84040667 -100.97371678 116.31452553 -95.4375 112.5 C-89.00662546 109.26298261 -80.89038124 109.37610985 -73.9921875 111.1171875 C-67.88512249 113.82345552 -63.40264412 119.00641045 -60.171875 124.75 C-59.33966007 127.86637931 -59.77764571 130.18174507 -60.28417969 133.32641602 C-61.1544801 140.31859274 -60.02337999 145.27279157 -55.9765625 151.09375 C-49.26373248 159.2765902 -42.66811834 165.54547461 -31.875 166.98046875 C-25.02898384 167.41321806 -18.25942182 167.1830793 -11.4375 166.5 C-11.45562744 165.91412109 -11.47375488 165.32824219 -11.49243164 164.72460938 C-11.68814325 153.81844042 -7.97767632 145.39852133 -0.4375 137.5 C6.50305702 130.87432647 14.48676222 126.37176359 24.24804688 126.46069336 C25.05657104 126.46636826 25.86509521 126.47204315 26.69812012 126.47789001 C27.31336548 126.48518631 27.92861084 126.4924826 28.5625 126.5 C32.29689907 94.19006227 32.29689907 94.19006227 21.89453125 64.8125 C19.61490949 62.11955809 17.19504933 59.66484865 14.625 57.25 C14.03392456 56.67245972 13.44284912 56.09491943 12.8338623 55.49987793 C6.63832596 49.65101632 1.17430433 46.03808495 -7.51551819 45.97735596 C-9.04596719 46.04261053 -10.57544261 46.14817348 -12.09959412 46.30145264 C-17.86624226 46.86838331 -21.57063072 45.65605915 -26.4375 42.5 C-28.6796875 40.53515625 -28.6796875 40.53515625 -30.3125 38.5625 C-30.86679688 37.91410156 -31.42109375 37.26570313 -31.9921875 36.59765625 C-36.47162097 30.09642443 -36.11213728 23.12859083 -35.4375 15.5 C-33.75664417 8.84040667 -28.97371678 4.31452553 -23.4375 0.5 C-16.65568202 -2.91366677 -6.96443471 -3.08620048 0 0 Z M-16.8125 17.125 C-18.92456506 20.21186432 -19.04945145 21.8282913 -18.4375 25.5 C-16.9375 28 -16.9375 28 -14.4375 29.5 C-10.7657913 30.11195145 -9.14936432 29.98706506 -6.0625 27.875 C-3.95043494 24.78813568 -3.82554855 23.1717087 -4.4375 19.5 C-5.9375 17 -5.9375 17 -8.4375 15.5 C-12.1092087 14.88804855 -13.72563568 15.01293494 -16.8125 17.125 Z M223.1875 33.125 C221.07543494 36.21186432 220.95054855 37.8282913 221.5625 41.5 C223.0625 44 223.0625 44 225.5625 45.5 C229.2342087 46.11195145 230.85063568 45.98706506 233.9375 43.875 C236.04956506 40.78813568 236.17445145 39.1717087 235.5625 35.5 C234.0625 33 234.0625 33 231.5625 31.5 C227.8907913 30.88804855 226.27436432 31.01293494 223.1875 33.125 Z M95.1875 41.125 C93.07543494 44.21186432 92.95054855 45.8282913 93.5625 49.5 C95.0625 52 95.0625 52 97.5625 53.5 C101.2342087 54.11195145 102.85063568 53.98706506 105.9375 51.875 C108.04956506 48.78813568 108.17445145 47.1717087 107.5625 43.5 C106.0625 41 106.0625 41 103.5625 39.5 C99.8907913 38.88804855 98.27436432 39.01293494 95.1875 41.125 Z M-88.8125 129.125 C-90.92456506 132.21186432 -91.04945145 133.8282913 -90.4375 137.5 C-88.9375 140 -88.9375 140 -86.4375 141.5 C-82.7657913 142.11195145 -81.14936432 141.98706506 -78.0625 139.875 C-75.95043494 136.78813568 -75.82554855 135.1717087 -76.4375 131.5 C-77.9375 129 -77.9375 129 -80.4375 127.5 C-84.1092087 126.88804855 -85.72563568 127.01293494 -88.8125 129.125 Z M279.1875 129.125 C277.07543494 132.21186432 276.95054855 133.8282913 277.5625 137.5 C279.0625 140 279.0625 140 281.5625 141.5 C285.2342087 142.11195145 286.85063568 141.98706506 289.9375 139.875 C292.04956506 136.78813568 292.17445145 135.1717087 291.5625 131.5 C290.0625 129 290.0625 129 287.5625 127.5 C283.8907913 126.88804855 282.27436432 127.01293494 279.1875 129.125 Z M11.5625 149.5 C3.91559105 158.38904645 4.26907413 169.4753631 4.30371094 180.59765625 C4.30099608 182.00308411 4.29743238 183.40851055 4.29309082 184.81393433 C4.28402338 188.60730904 4.28748761 192.40057418 4.29384899 196.19395065 C4.29893837 200.17756174 4.29420941 204.1611639 4.29107666 208.14477539 C4.28744554 214.83253654 4.29221364 221.5202534 4.30175781 228.20800781 C4.31264072 235.92256628 4.30911454 243.63701899 4.298105 251.3515749 C4.28900773 257.99388943 4.28775876 264.63617227 4.29298234 271.27849102 C4.29608865 275.23744628 4.29654841 279.19635195 4.28990936 283.15530396 C4.28410092 286.87854041 4.2881963 290.60164149 4.29969788 294.32486343 C4.30357215 296.33049589 4.29768875 298.33613989 4.29144287 300.34176636 C4.33766231 310.26648386 4.82365337 319.66651838 11.5625 327.5 C20.45154645 335.14690895 31.5378631 334.79342587 42.66015625 334.75878906 C44.06558411 334.76150392 45.47101055 334.76506762 46.87643433 334.76940918 C50.66980904 334.77847662 54.46307418 334.77501239 58.25645065 334.76865101 C62.24006174 334.76356163 66.2236639 334.76829059 70.20727539 334.77142334 C76.89503654 334.77505446 83.5827534 334.77028636 90.27050781 334.76074219 C97.98506628 334.74985928 105.69951899 334.75338546 113.4140749 334.764395 C120.05638943 334.77349227 126.69867227 334.77474124 133.34099102 334.76951766 C137.29994628 334.76641135 141.25885195 334.76595159 145.21780396 334.77259064 C148.94104041 334.77839908 152.66414149 334.7743037 156.38736343 334.76280212 C158.39299589 334.75892785 160.39863989 334.76481125 162.40426636 334.77105713 C172.51664372 334.72396375 181.65564347 334.4493519 189.19140625 326.859375 C195.31797739 320.06847687 196.68167522 313.4346376 196.69621277 304.37223816 C196.70047775 303.16535843 196.70474274 301.9584787 196.70913696 300.71502686 C196.70868378 299.40423157 196.70823059 298.09343628 196.70776367 296.74291992 C196.71075836 295.3379355 196.71416161 293.93295189 196.71794128 292.52796936 C196.7267543 288.7220522 196.72911827 284.91615754 196.72975707 281.11023116 C196.73046915 278.72914316 196.73260646 276.34806084 196.73525429 273.96697426 C196.74449904 265.65074934 196.7485903 257.33454043 196.74780273 249.01831055 C196.74720229 241.28166818 196.75774976 233.54509562 196.7735464 225.8084709 C196.78664751 219.15348395 196.79198555 212.49851973 196.79134732 205.84351999 C196.79109308 201.87445228 196.79390363 197.90544663 196.80452538 193.93639183 C196.81424964 190.20089465 196.81425606 186.4655183 196.80700874 182.73001671 C196.80547474 180.71719142 196.81377947 178.70436604 196.82244873 176.69155884 C196.7886474 166.89773464 196.4446644 157.11839594 189.5625 149.5 C179.82872611 141.91095595 170.56856167 142.35061887 158.69189453 142.35473633 C157.28676261 142.35174072 155.8816315 142.34833727 154.47650146 142.34455872 C150.67477561 142.33575607 146.87307229 142.3333822 143.07133722 142.33274293 C140.69242146 142.33203038 138.31351137 142.32989221 135.93459702 142.32724571 C127.62485136 142.31800513 119.31512171 142.31390927 111.00537109 142.31469727 C103.27609234 142.31529793 95.5468834 142.30474495 87.8176223 142.2889536 C81.16686143 142.27585293 74.51612332 142.27051442 67.86534965 142.27115268 C63.89965028 142.27140689 59.93401302 142.26859803 55.96832657 142.25797462 C52.23691997 142.24825081 48.50563434 142.24824363 44.77422333 142.25549126 C42.76379303 142.25702522 40.75336263 142.24872066 38.74295044 142.24005127 C28.80777517 142.27438127 19.40496949 142.75342144 11.5625 149.5 Z M311.1875 201.125 C309.07543494 204.21186432 308.95054855 205.8282913 309.5625 209.5 C311.0625 212 311.0625 212 313.5625 213.5 C317.2342087 214.11195145 318.85063568 213.98706506 321.9375 211.875 C324.04956506 208.78813568 324.17445145 207.1717087 323.5625 203.5 C322.0625 201 322.0625 201 319.5625 199.5 C315.8907913 198.88804855 314.27436432 199.01293494 311.1875 201.125 Z M-120.8125 249.125 C-122.92456506 252.21186432 -123.04945145 253.8282913 -122.4375 257.5 C-120.9375 260 -120.9375 260 -118.4375 261.5 C-114.7657913 262.11195145 -113.14936432 261.98706506 -110.0625 259.875 C-107.95043494 256.78813568 -107.82554855 255.1717087 -108.4375 251.5 C-109.9375 249 -109.9375 249 -112.4375 247.5 C-116.1092087 246.88804855 -117.72563568 247.01293494 -120.8125 249.125 Z M311.1875 329.125 C309.07543494 332.21186432 308.95054855 333.8282913 309.5625 337.5 C311.0625 340 311.0625 340 313.5625 341.5 C317.2342087 342.11195145 318.85063568 341.98706506 321.9375 339.875 C324.04956506 336.78813568 324.17445145 335.1717087 323.5625 331.5 C322.0625 329 322.0625 329 319.5625 327.5 C315.8907913 326.88804855 314.27436432 327.01293494 311.1875 329.125 Z M-96.8125 361.125 C-98.92456506 364.21186432 -99.04945145 365.8282913 -98.4375 369.5 C-96.9375 372 -96.9375 372 -94.4375 373.5 C-90.7657913 374.11195145 -89.14936432 373.98706506 -86.0625 371.875 C-83.95043494 368.78813568 -83.82554855 367.1717087 -84.4375 363.5 C-85.9375 361 -85.9375 361 -88.4375 359.5 C-92.1092087 358.88804855 -93.72563568 359.01293494 -96.8125 361.125 Z M231.1875 401.125 C229.07543494 404.21186432 228.95054855 405.8282913 229.5625 409.5 C231.0625 412 231.0625 412 233.5625 413.5 C237.2342087 414.11195145 238.85063568 413.98706506 241.9375 411.875 C244.04956506 408.78813568 244.17445145 407.1717087 243.5625 403.5 C242.0625 401 242.0625 401 239.5625 399.5 C235.8907913 398.88804855 234.27436432 399.01293494 231.1875 401.125 Z M-16.8125 449.125 C-18.92456506 452.21186432 -19.04945145 453.8282913 -18.4375 457.5 C-16.9375 460 -16.9375 460 -14.4375 461.5 C-10.7657913 462.11195145 -9.14936432 461.98706506 -6.0625 459.875 C-3.95043494 456.78813568 -3.82554855 455.1717087 -4.4375 451.5 C-5.9375 449 -5.9375 449 -8.4375 447.5 C-12.1092087 446.88804855 -13.72563568 447.01293494 -16.8125 449.125 Z M159.1875 449.125 C157.07543494 452.21186432 156.95054855 453.8282913 157.5625 457.5 C159.0625 460 159.0625 460 161.5625 461.5 C165.2342087 462.11195145 166.85063568 461.98706506 169.9375 459.875 C172.04956506 456.78813568 172.17445145 455.1717087 171.5625 451.5 C170.0625 449 170.0625 449 167.5625 447.5 C163.8907913 446.88804855 162.27436432 447.01293494 159.1875 449.125 Z " fill="#000000" transform="translate(155.4375,17.5)"/>
<path d="M0 0 C8.76021833 6.309705 15.50015067 14.74211323 17.58203125 25.4921875 C18.0054807 31.49083758 17.81977474 37.48916437 17.58203125 43.4921875 C18.33355469 43.76804688 19.08507812 44.04390625 19.859375 44.328125 C22.34707151 45.39173125 24.07996429 46.40230358 26.14453125 48.1171875 C26.98177734 48.78621094 26.98177734 48.78621094 27.8359375 49.46875 C34.95178533 57.71485553 34.17012458 66.78914247 34.11328125 77.0546875 C34.11597973 78.77287007 34.11986511 80.49105114 34.12487793 82.20922852 C34.13075627 85.80011619 34.12226411 89.3906043 34.10351562 92.98144531 C34.08072683 97.5678946 34.0938589 102.1534074 34.11780548 106.73982239 C34.13230875 110.28477951 34.12763682 113.82951721 34.11729431 117.3744812 C34.11463951 119.064851 34.11785258 120.75524119 34.12721252 122.44558716 C34.2040426 140.21776501 34.2040426 140.21776501 27.6171875 147.734375 C26.96621094 148.27320313 26.31523437 148.81203125 25.64453125 149.3671875 C24.67193359 150.19863281 24.67193359 150.19863281 23.6796875 151.046875 C18.95218676 154.30418463 14.60632503 154.79001072 8.98120117 154.78271484 C8.23254288 154.78943207 7.48388458 154.79614929 6.71253967 154.80307007 C4.24579162 154.82201518 1.77931621 154.82597262 -0.6875 154.828125 C-2.40996918 154.8345559 -4.13243727 154.84128448 -5.85490417 154.84829712 C-9.46359793 154.86026155 -13.07219602 154.86397886 -16.6809082 154.86279297 C-21.2909158 154.86258995 -25.90030574 154.88987772 -30.51016712 154.92433739 C-34.06795534 154.94664514 -37.6255959 154.95062931 -41.18344688 154.94957352 C-42.88221042 154.95192419 -44.58097836 154.96071753 -46.27967262 154.97623825 C-64.13228227 155.12406955 -64.13228227 155.12406955 -71.66015625 148.52734375 C-72.46839844 147.55087891 -72.46839844 147.55087891 -73.29296875 146.5546875 C-73.84726563 145.90628906 -74.4015625 145.25789062 -74.97265625 144.58984375 C-78.22996588 139.86234301 -78.71579197 135.51648128 -78.70849609 129.89135742 C-78.71521332 129.14269913 -78.72193054 128.39404083 -78.72885132 127.62269592 C-78.74779643 125.15594787 -78.75175387 122.68947246 -78.75390625 120.22265625 C-78.76033715 118.50018707 -78.76706573 116.77771898 -78.77407837 115.05525208 C-78.7860428 111.44655832 -78.78976011 107.83796023 -78.78857422 104.22924805 C-78.7883712 99.61924045 -78.81565897 95.00985051 -78.85011864 90.39998913 C-78.87242639 86.84220091 -78.87641056 83.28456035 -78.87535477 79.72670937 C-78.87770544 78.02794583 -78.88649878 76.32917789 -78.9020195 74.63048363 C-79.04994508 56.76648867 -79.04994508 56.76648867 -72.41796875 49.21484375 C-71.75796875 48.66699219 -71.09796875 48.11914062 -70.41796875 47.5546875 C-69.75796875 46.98878906 -69.09796875 46.42289063 -68.41796875 45.83984375 C-66.36500738 44.45650064 -64.80618551 44.02176213 -62.41796875 43.4921875 C-62.464375 42.32042969 -62.51078125 41.14867187 -62.55859375 39.94140625 C-62.91267989 27.30605085 -61.83411449 17.57963542 -53.390625 7.55859375 C-39.45028894 -7.04425333 -17.51265688 -10.92065518 0 0 Z M-41.0703125 19.35546875 C-46.09572818 26.62411345 -46.41796875 33.83006792 -46.41796875 42.4921875 C-30.57796875 42.4921875 -14.73796875 42.4921875 1.58203125 42.4921875 C1.58203125 33.0095444 1.10317956 24.84582283 -5.41796875 17.4921875 C-11.64777978 11.94801032 -17.76449837 10.51938805 -26.0078125 10.9140625 C-32.25882355 11.97379862 -36.86917801 14.61801922 -41.0703125 19.35546875 Z M-60.41796875 61.4921875 C-62.61013765 65.19057181 -62.67499788 68.60105078 -62.69262695 72.83959961 C-62.70215897 74.10118393 -62.71169098 75.36276825 -62.72151184 76.6625824 C-62.72125039 78.03156563 -62.72031325 79.40054888 -62.71875 80.76953125 C-62.72264041 82.18290838 -62.72697579 83.59628434 -62.73173523 85.00965881 C-62.73918354 87.96765946 -62.73891625 90.92554071 -62.73364258 93.88354492 C-62.72784895 97.66414318 -62.74478259 101.44425137 -62.76798725 105.22476864 C-62.78275699 108.14253063 -62.78359193 111.06017546 -62.78047752 113.97796822 C-62.78098908 115.37135349 -62.78619573 116.7647456 -62.79628944 118.15809441 C-62.80869841 120.11048482 -62.79989875 122.06297469 -62.7902832 124.01538086 C-62.79091263 125.12392929 -62.79154205 126.23247772 -62.79219055 127.37461853 C-62.34992034 131.05908553 -61.45718212 133.39193416 -59.41796875 136.4921875 C-55.71958444 138.6843564 -52.30910547 138.74921663 -48.07055664 138.7668457 C-46.80897232 138.77637772 -45.547388 138.78590973 -44.24757385 138.79573059 C-42.87859062 138.79546914 -41.50960737 138.794532 -40.140625 138.79296875 C-38.72724787 138.79685916 -37.31387191 138.80119454 -35.90049744 138.80595398 C-32.94249679 138.81340229 -29.98461554 138.813135 -27.02661133 138.80786133 C-23.24601307 138.8020677 -19.46590488 138.81900134 -15.68538761 138.842206 C-12.76762562 138.85697574 -9.84998079 138.85781068 -6.93218803 138.85469627 C-5.53880276 138.85520783 -4.14541065 138.86041448 -2.75206184 138.87050819 C-0.79967143 138.88291716 1.15281844 138.8741175 3.10522461 138.86450195 C4.21377304 138.86513138 5.32232147 138.8657608 6.46446228 138.8664093 C10.14892928 138.42413909 12.48177791 137.53140087 15.58203125 135.4921875 C17.77420015 131.79380319 17.83906038 128.38332422 17.85668945 124.14477539 C17.86622147 122.88319107 17.87575348 121.62160675 17.88557434 120.3217926 C17.88531289 118.95280937 17.88437575 117.58382612 17.8828125 116.21484375 C17.88670291 114.80146662 17.89103829 113.38809066 17.89579773 111.97471619 C17.90324604 109.01671554 17.90297875 106.05883429 17.89770508 103.10083008 C17.89191145 99.32023182 17.90884509 95.54012363 17.93204975 91.75960636 C17.94681949 88.84184437 17.94765443 85.92419954 17.94454002 83.00640678 C17.94505158 81.61302151 17.95025823 80.2196294 17.96035194 78.82628059 C17.97276091 76.87389018 17.96396125 74.92140031 17.9543457 72.96899414 C17.95497513 71.86044571 17.95560455 70.75189728 17.95625305 69.60975647 C17.51398284 65.92528947 16.62124462 63.59244084 14.58203125 60.4921875 C10.88364694 58.3000186 7.47316797 58.23515837 3.23461914 58.2175293 C1.97303482 58.20799728 0.7114505 58.19846527 -0.58836365 58.18864441 C-1.95734688 58.18890586 -3.32633013 58.189843 -4.6953125 58.19140625 C-6.10868963 58.18751584 -7.52206559 58.18318046 -8.93544006 58.17842102 C-11.89344071 58.17097271 -14.85132196 58.17124 -17.80932617 58.17651367 C-21.58992443 58.1823073 -25.37003262 58.16537366 -29.15054989 58.142169 C-32.06831188 58.12739926 -34.98595671 58.12656432 -37.90374947 58.12967873 C-39.29713474 58.12916717 -40.69052685 58.12396052 -42.08387566 58.11386681 C-44.03626607 58.10145784 -45.98875594 58.1102575 -47.94116211 58.11987305 C-49.04971054 58.11924362 -50.15825897 58.1186142 -51.30039978 58.1179657 C-54.98486678 58.56023591 -57.31771541 59.45297413 -60.41796875 61.4921875 Z " fill="#000000" transform="translate(278.41796875,181.5078125)"/>
<path d="M0 0 C5.59137949 3.37887664 10.95614309 9.07457238 12.5625 15.5 C14.04442542 22.90962711 13.44011931 28.95338574 9.875 35.6875 C5.9939767 40.40766347 2.57334481 43.9972888 -3.4375 45.5 C-3.4375 51.11 -3.4375 56.72 -3.4375 62.5 C-8.7175 62.5 -13.9975 62.5 -19.4375 62.5 C-19.4375 56.89 -19.4375 51.28 -19.4375 45.5 C-21.4175 44.84 -23.3975 44.18 -25.4375 43.5 C-30.74273695 39.50304478 -34.62248197 34.58145749 -35.9375 27.99609375 C-37.01475606 19.92789468 -35.44526698 14.36681047 -31.75 7.25 C-24.23392532 -1.68803476 -10.83631915 -4.84221348 0 0 Z M-16.8125 17.125 C-18.92456506 20.21186432 -19.04945145 21.8282913 -18.4375 25.5 C-16.9375 28 -16.9375 28 -14.4375 29.5 C-10.7657913 30.11195145 -9.14936432 29.98706506 -6.0625 27.875 C-3.95043494 24.78813568 -3.82554855 23.1717087 -4.4375 19.5 C-5.9375 17 -5.9375 17 -8.4375 15.5 C-12.1092087 14.88804855 -13.72563568 15.01293494 -16.8125 17.125 Z " fill="#000000" transform="translate(267.4375,249.5)"/>
<path d="M0 0 C5.28 0 10.56 0 16 0 C16 5.28 16 10.56 16 16 C10.72 16 5.44 16 0 16 C0 10.72 0 5.44 0 0 Z " fill="#000000" transform="translate(216,432)"/>
<path d="M0 0 C5.28 0 10.56 0 16 0 C16 5.28 16 10.56 16 16 C10.72 16 5.44 16 0 16 C0 10.72 0 5.44 0 0 Z " fill="#000000" transform="translate(280,408)"/>
<path d="M0 0 C5.28 0 10.56 0 16 0 C16 5.28 16 10.56 16 16 C10.72 16 5.44 16 0 16 C0 10.72 0 5.44 0 0 Z " fill="#000000" transform="translate(368,360)"/>
<path d="M0 0 C5.28 0 10.56 0 16 0 C16 5.28 16 10.56 16 16 C10.72 16 5.44 16 0 16 C0 10.72 0 5.44 0 0 Z " fill="#000000" transform="translate(128,360)"/>
<path d="M0 0 C5.28 0 10.56 0 16 0 C16 5.28 16 10.56 16 16 C10.72 16 5.44 16 0 16 C0 10.72 0 5.44 0 0 Z " fill="#000000" transform="translate(424,280)"/>
<path d="M0 0 C5.28 0 10.56 0 16 0 C16 5.28 16 10.56 16 16 C10.72 16 5.44 16 0 16 C0 10.72 0 5.44 0 0 Z " fill="#000000" transform="translate(88,248)"/>
<path d="M0 0 C5.28 0 10.56 0 16 0 C16 5.28 16 10.56 16 16 C10.72 16 5.44 16 0 16 C0 10.72 0 5.44 0 0 Z " fill="#000000" transform="translate(408,216)"/>
<path d="M0 0 C5.28 0 10.56 0 16 0 C16 5.28 16 10.56 16 16 C10.72 16 5.44 16 0 16 C0 10.72 0 5.44 0 0 Z " fill="#000000" transform="translate(368,136)"/>
<path d="M0 0 C5.28 0 10.56 0 16 0 C16 5.28 16 10.56 16 16 C10.72 16 5.44 16 0 16 C0 10.72 0 5.44 0 0 Z " fill="#000000" transform="translate(128,136)"/>
<path d="M0 0 C5.28 0 10.56 0 16 0 C16 5.28 16 10.56 16 16 C10.72 16 5.44 16 0 16 C0 10.72 0 5.44 0 0 Z " fill="#000000" transform="translate(280,88)"/>
<path d="M0 0 C5.28 0 10.56 0 16 0 C16 5.28 16 10.56 16 16 C10.72 16 5.44 16 0 16 C0 10.72 0 5.44 0 0 Z " fill="#000000" transform="translate(216,88)"/>
</svg>
